<svg xmlns="http://www.w3.org/2000/svg" width="24" height="24" viewBox="0 0 24 24">
    <g id="cross" transform="translate(-230 -121)">
        <g id="Group_1883" data-name="Group 1883" transform="translate(-811.934 -563)">
            <g id="Group_307" data-name="Group 307" transform="translate(1048.933 691)">
                <g id="Group_306" data-name="Group 306">
                    <g id="Group_305" data-name="Group 305">
                        <path id="Path_27" fill="currentColor" fill-rule="evenodd" d="M36.641 28.248a.482.482 0 0 0 0-.68l-.495-.495a.481.481 0 0 0-.68 0l-3.266 3.27a.481.481 0 0 1-.68 0l-3.269-3.269a.482.482 0 0 0-.68 0l-.495.495a.481.481 0 0 0 0 .68l3.269 3.269a.481.481 0 0 1 0 .68l-3.269 3.269a.482.482 0 0 0 0 .68l.495.495a.481.481 0 0 0 .68 0l3.269-3.269a.481.481 0 0 1 .68 0l3.269 3.269a.482.482 0 0 0 .68 0l.495-.495a.481.481 0 0 0 0-.68L33.372 32.2a.481.481 0 0 1 0-.68z" data-name="Path 27" transform="translate(-26.933 -26.933)"/>
                    </g>
                </g>
            </g>
        </g>
    </g>
</svg>
