<svg xmlns="http://www.w3.org/2000/svg" width="24" height="24" viewBox="0 0 24 24">
    <g id="Group_1899" data-name="Group 1899" transform="translate(-348 -310)">
        <g id="action" transform="translate(356 317)">
            <path id="Path_6" fill="none" stroke="currentColor" d="M23.9 9.243c-.053-.122-.2-.189-.417-.189H21.04a.157.157 0 0 1-.161-.219l1-3.2c.09-.29.1-.485.032-.578A.147.147 0 0 0 21.784 5c-.114 0-.271.106-.466.316l-4.523 4.845c-.148.158-.2.312-.147.434s.2.189.417.189h2.446a.157.157 0 0 1 .161.219l-1 3.2c-.09.29-.1.485-.032.579a.148.148 0 0 0 .124.061c.114 0 .271-.106.466-.316l4.523-4.845c.147-.163.203-.317.147-.439z" data-name="Path 6" transform="translate(-16.628 -5)"/>
        </g>
    </g>
</svg>
