<svg xmlns="http://www.w3.org/2000/svg" width="24" height="24" viewBox="0 0 24 24">
    <g id="publish" transform="translate(-241 -310)">
        <g id="Group_1898" data-name="Group 1898" transform="translate(248 317)">
            <path id="Path_28" fill="#424f62" stroke="#424f62" stroke-width="0.5px" d="M11.884 4a1.457 1.457 0 0 0-.4 2.861 4.677 4.677 0 0 1-4.632 4.632 1.458 1.458 0 0 0-1.108-1.036V6.892a1.461 1.461 0 1 0-.584 0v3.565a1.46 1.46 0 1 0 1.74 1.618A5.254 5.254 0 0 0 12.071 6.9a1.457 1.457 0 0 0-.187-2.9zM4.58 5.461a.876.876 0 1 1 .876.876.876.876 0 0 1-.876-.876zm.876 7.3a.876.876 0 1 1 .876-.876.876.876 0 0 1-.875.879zm6.427-6.427a.876.876 0 1 1 .876-.876.876.876 0 0 1-.875.879z" data-name="Path 28" transform="translate(-3.99 -4)"/>
        </g>
    </g>
</svg>
